<svg viewBox="0 0 24 24" xmlns="http://www.w3.org/2000/svg" fill="none">
	<path
			d="M10.7429 5.09232C11.1494 5.03223 11.5686 5 12.0004 5C17.1054 5 20.4553 9.50484 21.5807 11.2868C21.7169 11.5025 21.785 11.6103 21.8231 11.7767C21.8518 11.9016 21.8517 12.0987 21.8231 12.2236C21.7849 12.3899 21.7164 12.4985 21.5792 12.7156C21.2793 13.1901 20.8222 13.8571 20.2165 14.5805M17.2888 17.2766C15.8319 18.2676 14.0588 19 12.0004 19C6.89541 19 3.54554 14.4952 2.42013 12.7132C2.28393 12.4975 2.21583 12.3897 2.17771 12.2234C2.14909 12.0984 2.1491 11.9014 2.17774 11.7765C2.21587 11.6102 2.28429 11.5019 2.42111 11.2853C3.09445 10.2194 4.56225 8.1817 6.72432 6.71504M3.00042 3L21.0004 21M14.1217 14.1213C13.5788 14.6642 12.8288 15 12.0004 15C10.3436 15 9.00042 13.6569 9.00042 12C9.00042 11.1716 9.3362 10.4216 9.8791 9.87868"
			stroke="currentColor"
			stroke-linecap="round"
			stroke-linejoin="round"
			stroke-width="2"
			fill="none"
	/>
</svg>