<svg viewBox="0 0 24 24" xmlns="http://www.w3.org/2000/svg" xmlns:xlink="http://www.w3.org/1999/xlink" width="24.000000" height="24.000000" fill="none">
	<defs>
		<filter id="filter_0" width="18.000000" height="20.000000" x="3.000000" y="2.000000" filterUnits="userSpaceOnUse" customEffect="url(#pixso_custom_effect_0)" color-interpolation-filters="sRGB">
			<feFlood flood-opacity="0" result="BackgroundImageFix" />
			<feBlend result="shape" in="SourceGraphic" in2="BackgroundImageFix" mode="normal" />
			<feOffset dx="0.000000" dy="4.000000" in="SourceAlpha" />
			<feGaussianBlur stdDeviation="1.33333337" />
			<feComposite k2="-1" k3="1" in2="SourceAlpha" operator="arithmetic" />
			<feColorMatrix type="matrix" values="0 0 0 0 0 0 0 0 0 0 0 0 0 0 0 0 0 0 0.17 0 " />
			<feBlend result="effect_innerShadow_1" in2="shape" mode="normal" />
		</filter>
	</defs>
	<rect id="lock-03" width="24.000000" height="24.000000" x="0.000000" y="0.000000" fill="rgb(255,255,255)" fill-opacity="0" />
	<g filter="url(#filter_0)">
		<path id="Icon" d="M7 11L7 8C7 5.23858 9.23858 3 12 3C14.7614 3 17 5.23858 17 8L17 11M15.2 11C16.8802 11 17.7202 11 18.362 11.327C18.9265 11.6146 19.3854 12.0735 19.673 12.638C20 13.2798 20 14.1198 20 15.8L20 16.2C20 17.8802 20 18.7202 19.673 19.362C19.3854 19.9265 18.9265 20.3854 18.362 20.673C17.7202 21 16.8802 21 15.2 21L8.8 21C7.11984 21 6.27976 21 5.63803 20.673C5.07354 20.3854 4.6146 19.9265 4.32698 19.362C4 18.7202 4 17.8802 4 16.2L4 15.8C4 14.1198 4 13.2798 4.32698 12.638C4.6146 12.0735 5.07354 11.6146 5.63803 11.327C6.27976 11 7.11984 11 8.8 11L15.2 11Z" fill-rule="nonzero" stroke="rgb(237,237,237)" stroke-linecap="round" stroke-linejoin="round" stroke-width="2.000000" />
	</g>
</svg>
