<svg viewBox="0 0 35 34" xmlns="http://www.w3.org/2000/svg" xmlns:xlink="http://www.w3.org/1999/xlink" width="35.000000" height="34.000000" fill="none">
	<rect id="Лого" width="35.000000" height="34.000000" x="0.000000" y="0.000000" fill="rgb(255,255,255)" fill-opacity="0" />
	<path id="Vector" d="M4.62002 22.5692C4.92543 22.5692 5.17302 20.0758 5.17302 17C5.17302 13.9242 4.92543 11.4308 4.62002 11.4308C4.3146 11.4308 4.06702 13.9242 4.06702 17C4.06702 20.0758 4.3146 22.5692 4.62002 22.5692Z" fill="rgb(0,0,0)" fill-rule="nonzero" />
	<path id="Vector" d="M6.09 23.188C6.43021 23.188 6.706 20.4176 6.706 17C6.706 13.5825 6.43021 10.812 6.09 10.812C5.74979 10.812 5.474 13.5825 5.474 17C5.474 20.4176 5.74979 23.188 6.09 23.188Z" fill="rgb(0,0,0)" fill-rule="nonzero" />
	<path id="Vector" d="M7.72807 23.8816C8.10306 23.8816 8.40707 20.8006 8.40707 17C8.40707 13.1994 8.10306 10.1184 7.72807 10.1184C7.35308 10.1184 7.04907 13.1994 7.04907 17C7.04907 20.8006 7.35308 23.8816 7.72807 23.8816Z" fill="rgb(0,0,0)" fill-rule="nonzero" />
	<path id="Vector" d="M9.54103 24.6432C9.95858 24.6432 10.297 21.2212 10.297 17C10.297 12.7788 9.95858 9.35681 9.54103 9.35681C9.12348 9.35681 8.78503 12.7788 8.78503 17C8.78503 21.2212 9.12348 24.6432 9.54103 24.6432Z" fill="rgb(0,0,0)" fill-rule="nonzero" />
	<path id="Vector" d="M11.557 25.4932C12.0209 25.4932 12.397 21.6907 12.397 17C12.397 12.3094 12.0209 8.50684 11.557 8.50684C11.0932 8.50684 10.717 12.3094 10.717 17C10.717 21.6907 11.0932 25.4932 11.557 25.4932Z" fill="rgb(0,0,0)" fill-rule="nonzero" />
	<path id="Vector" d="M13.804 26.4384C14.3182 26.4384 14.735 22.2127 14.735 17C14.735 11.7874 14.3182 7.56165 13.804 7.56165C13.2899 7.56165 12.873 11.7874 12.873 17C12.873 22.2127 13.2899 26.4384 13.804 26.4384Z" fill="rgb(0,0,0)" fill-rule="nonzero" />
	<path id="Vector" d="M16.296 27.4856C16.8682 27.4856 17.332 22.791 17.332 17C17.332 11.209 16.8682 6.5144 16.296 6.5144C15.7238 6.5144 15.26 11.209 15.26 17C15.26 22.791 15.7238 27.4856 16.296 27.4856Z" fill="rgb(0,0,0)" fill-rule="nonzero" />
	<path id="Vector" d="M19.061 28.6484C19.6989 28.6484 20.216 23.4332 20.216 17C20.216 10.5668 19.6989 5.35156 19.061 5.35156C18.4231 5.35156 17.906 10.5668 17.906 17C17.906 23.4332 18.4231 28.6484 19.061 28.6484Z" fill="rgb(0,0,0)" fill-rule="nonzero" />
	<path id="Vector" d="M22.134 29.9471C22.8415 29.9471 23.415 24.1505 23.415 16.9999C23.415 9.84939 22.8415 4.05273 22.134 4.05273C21.4265 4.05273 20.853 9.84939 20.853 16.9999C20.853 24.1505 21.4265 29.9471 22.134 29.9471Z" fill="rgb(0,0,0)" fill-rule="nonzero" />
	<path id="Vector" d="M25.55 31.382C26.3348 31.382 26.971 24.943 26.971 17C26.971 9.0571 26.3348 2.61804 25.55 2.61804C24.7653 2.61804 24.129 9.0571 24.129 17C24.129 24.943 24.7653 31.382 25.55 31.382Z" fill="rgb(0,0,0)" fill-rule="nonzero" />
	<path id="Vector" d="M29.344 32.98C30.2177 32.98 30.926 25.8255 30.926 17C30.926 8.1745 30.2177 1.02002 29.344 1.02002C28.4702 1.02002 27.762 8.1745 27.762 17C27.762 25.8255 28.4702 32.98 29.344 32.98Z" fill="rgb(0,0,0)" fill-rule="nonzero" />
</svg>
